<?xml version="1.0" encoding="UTF-8"?>
<svg xmlns="http://www.w3.org/2000/svg" version="1.1" viewBox="0 0 1139.5 836.8">
  <defs>
    <style>
      .cls-1 {
        fill: #000091;
      }

      .cls-2 {
        fill: #e1000f;
      }

      .cls-3 {
        fill: #fff;
      }

      .cls-4 {
        fill: #9d9d9c;
      }
    </style>
  </defs>
  <!-- Generator: Adobe Illustrator 28.7.1, SVG Export Plug-In . SVG Version: 1.2.0 Build 142)  -->
  <g>
    <g id="Calque_2">
      <g id="zone">
        <rect class="cls-3" x="0" y="0" width="1139.5" height="836.8"/>
      </g>
      <g id="vect">
        <path d="M293.6,730.4c1.7,0,3.2,1.3,2.4,4.7l-8,1.9c1.4-3.8,3.8-6.5,5.6-6.5M298.1,743.4h-1.6c-2,2.4-4.2,4.3-6.3,4.3s-3.3-1.3-3.3-4.3c0-1.2.1-2.4.4-3.6l13-4.3c2.5-6-.5-8.6-4.1-8.6-6.1,0-13.1,10.3-13.1,19.3s1.9,6.2,4.9,6.2,7.2-3.4,10.2-9.1M295.5,724.5l9.1-8.5v-1h-5l-5.6,9.5h1.4ZM267.4,730.5h4.3l-6.9,18.7c-.6,1.6.2,3.2,1.9,3.2,3.9,0,10.2-3.8,12.4-9.1h-1.2c-1.7,1.8-5.1,4.3-7.9,4.8l6.3-17.6h6.4l.8-2.7h-6.2l2.4-6.8h-2.5l-4.5,6.8-5.3.8v1.9ZM261.6,729.6c.5-1.7-.6-2.7-1.5-2.7-3.8,0-8.2,3.4-10,8.1h1.2c1.2-1.7,3.3-3.7,5.2-4l-7.2,18.7c-.5.9-.1,2.1.8,2.5.2.1.5.2.7.2,3.6,0,7.8-3.4,9.5-8.1h-1.2c-1.2,1.7-3.3,3.7-5.2,4l7.6-18.7ZM262.9,720.2c1.7,0,3.1-1.4,3.1-3.1,0-1.7-1.4-3.1-3.1-3.1s-3.1,1.4-3.1,3.1h0c0,1.7,1.3,3.1,3,3.1,0,0,0,0,0,0M221.5,749c-.9,2.1,0,3.5,2.1,3.5s1.8-.3,2.4-1.7l5-13.2c2.3-2.8,7-5.8,8.9-5.8s1.2,1.1.3,2.8l-7.6,14.7c-.6,1-.2,2.4.9,2.9.3.2.7.3,1,.3,3.8,0,8.2-3.4,10-8.1h-1.2c-1.2,1.7-3.3,3.7-5.2,4l6.6-13.3c.8-1.4,1.2-3,1.3-4.6.2-1.8-1.1-3.4-2.9-3.6-.2,0-.4,0-.6,0-3.2,0-6.5,3.7-10.4,8.2v-3.5c0-2.5-.8-4.7-3.1-4.7s-2.8,1.2-4,3v.5c2.4-.1,3.5,3.5,1.8,7.4l-5.1,11.3ZM221.4,732.7c.9-3,.4-5.7-1.9-5.7s-3.5,2.1-6.3,8.2v-3.5c0-2.5-.8-4.7-3.1-4.7s-5,4.1-6.9,8.1h1.2c1.3-1.8,2.4-2.9,3.4-2.9s1.7,1.7,0,5.6l-5.1,11.3c-.9,2.1,0,3.5,2.1,3.5s1.8-.3,2.4-1.7l5-13.2c1.4-1.7,2.7-3.2,4.3-4.9h4.9ZM192.6,730.4c1.7,0,3.2,1.3,2.4,4.7l-8,1.8c1.4-3.8,3.8-6.5,5.6-6.5M197.1,743.4h-1.6c-2,2.4-4.2,4.3-6.3,4.3s-3.3-1.3-3.3-4.3c0-1.2.1-2.4.4-3.6l13-4.3c2.5-6-.5-8.6-4.1-8.6-6.1,0-13.1,10.3-13.1,19.3s1.9,6.2,4.9,6.2,7.2-3.4,10.2-9.1M166.4,730.5h4.3l-6.9,18.7c-.6,1.6.2,3.2,1.9,3.2,3.9,0,10.2-3.8,12.4-9.1h-1.2c-1.7,1.8-5.1,4.3-7.9,4.8l6.3-17.6h6.4l.8-2.7h-6.2l2.4-6.8h-2.5l-4.5,6.8-5.3.8v1.9ZM142.7,745.1c0-5.8,6.4-13.6,10.1-13.6.7,0,1.5,0,2.2.3l-3.8,10c-2.2,2.6-5.5,5.8-7,5.8s-1.5-.8-1.5-2.5M162.5,725.8h-2c0-.1-2.2,2-2.2,2h-.5c-10.7,0-19.9,12-19.9,20.8-.2,2,1.3,3.7,3.2,3.8.2,0,.4,0,.6,0,2.8,0,5.5-4,8.5-8.2v1.5c-.5,4.3.8,6.7,3.1,6.7s5-4.1,6.9-8.1h-1.2c-1.3,1.8-2.4,2.9-3.4,2.9s-1.7-1.8,0-5.6l6.9-15.8ZM139.7,732.6c.9-3,.4-5.7-1.9-5.7s-3.5,2.1-6.3,8.2v-3.5c0-2.5-.8-4.7-3.1-4.7s-5,4.1-6.8,8.1h1.2c1.3-1.8,2.4-2.9,3.4-2.9s1.7,1.7,0,5.6l-5.1,11.3c-.9,2.1,0,3.5,2.1,3.5s1.8-.3,2.3-1.7l5-13.2c1.4-1.7,2.7-3.2,4.3-4.9h4.9ZM103.7,751.5l.5-1.5c-6.2-1.2-7-1.2-4.6-8l2.5-7h6.9c3.1,0,3.2,1.3,2.7,4.7h1.8l4.1-11.3h-1.8c-1.6,2.7-2.8,4.7-6.2,4.7h-6.8l3.6-9.9c1.1-3.2,1.8-3.8,6-3.8h3c4.4,0,4.9,1.2,4.9,5.6h1.7l1.4-7.7h-25.9l-.5,1.5c5,1,5.5,1.5,3.2,8l-5.6,15.4c-2.3,6.4-3.3,7-9.1,8l-.4,1.5h18.5Z"/>
        <path d="M230.7,671.7c1.7,0,3.2,1.3,2.4,4.7l-8.1,1.9c1.4-3.8,3.8-6.5,5.6-6.5M235.2,684.7h-1.6c-2,2.4-4.2,4.3-6.3,4.3s-3.3-1.3-3.3-4.3c0-1.2.1-2.4.4-3.6l13-4.3c2.5-6-.5-8.6-4.1-8.6-6.1,0-13.1,10.3-13.1,19.3s1.9,6.2,4.9,6.2,7.2-3.4,10.2-9.1M232.6,665.8l9.2-8.5v-1h-4.9l-5.6,9.5h1.4ZM204.5,671.8h4.3l-6.8,18.8c-.6,1.6.2,3.2,1.9,3.2,3.9,0,10.2-3.8,12.4-9.1h-1.3c-1.7,1.8-5.1,4.3-7.9,4.8l6.3-17.6h6.4l.8-2.7h-6.2l2.4-6.8h-2.5l-4.5,6.8-5.3.8v1.9ZM198.7,670.9c.5-1.7-.7-2.7-1.6-2.7-3.8,0-8.2,3.4-10,8.1h1.2c1.2-1.7,3.3-3.7,5.2-4l-7.2,18.7c-.5.9-.1,2,.8,2.5.2.1.5.2.7.2,3.6,0,7.8-3.4,9.5-8.1h-1.2c-1.2,1.7-3.3,3.7-5.2,4l7.7-18.7ZM200,661.5c1.7,0,3.1-1.4,3.1-3.1s-1.4-3.1-3.1-3.1-3.1,1.4-3.1,3.1c0,0,0,0,0,0,0,1.7,1.3,3.1,3,3.1,0,0,0,0,0,0M175,689.6l13.1-34.3-.4-.5-8.2.9v1l1.6,1.2c1.4,1.1,1,2.2-.3,5.7l-10.2,27c-.6,1-.2,2.4.9,2.9.3.2.7.3,1,.3,3.8,0,7.8-3.4,9.5-8.1h-1.2c-1.4,1.9-3.4,3.3-5.7,4M150.1,686.4c0-5.8,6.4-13.6,10.1-13.6.7,0,1.5,0,2.2.3l-3.8,10c-2.2,2.6-5.5,5.8-7,5.8s-1.5-.8-1.5-2.5M169.9,667.1h-2c0-.1-2.2,2-2.2,2h-.5c-10.7,0-20,12-20,20.8-.2,2,1.3,3.7,3.2,3.8.2,0,.4,0,.6,0,2.8,0,5.5-4,8.6-8.2v1.5c-.5,4.3.8,6.7,3.1,6.7s5-4.1,6.9-8.1h-1.2c-1.3,1.8-2.4,2.9-3.4,2.9s-1.7-1.8,0-5.6l7-15.8ZM122.1,698.3c0-2.5,2.4-4,5.8-5.4,1.6.8,3.3,1.4,5.1,1.9,3.6,1.2,4.9,1.6,4.9,2.7,0,2.3-3.9,4-9.2,4s-6.6-.9-6.6-3.3M131.8,683.1c-1.6,0-2.2-1.3-2.2-2.8,0-4.2,2.2-10.3,5.8-10.3s2.2,1.3,2.2,2.8c0,4.2-2.2,10.3-5.8,10.3M142,696c0-3-2.7-4.1-7.1-5.4-3.8-1.1-5.4-1.5-5.4-2.7s.8-2.2,2.4-3c5.6-.4,9.9-5,10.1-10.5,0-.9-.2-1.8-.5-2.6h5.2l.8-2.7h-8.3c-1-.6-2.2-.9-3.3-.9-5.8,0-10.5,4.6-10.8,10.4-.1,3,2,5.7,5,6.2-3.1,1.4-4.7,3-4.7,4.8,0,1,.4,2,1.3,2.5-7,2.1-9.8,4.4-9.8,7.8s4.3,4.6,9.3,4.6c8.6,0,15.8-4.7,15.8-8.5M109.2,675.9c3.1,0,3.2,1.3,2.7,4.7h1.8l4.1-11.3h-1.8c-1.6,2.7-2.8,4.6-6.2,4.6h-6.8l3.4-9.4c1.1-3.2,1.8-3.8,6-3.8h3c4.4,0,4.9,1.2,4.9,5.5h1.7l1.4-7.7h-25.9l-.5,1.5c5,1,5.5,1.5,3.2,8l-5.6,15.4c-2.3,6.4-3.3,7-9.1,8l-.4,1.5h28.8l5.2-8.2h-2c-3.3,3.1-7.4,6.1-13.2,6.1s-7-.3-4.4-7.3l2.7-7.5h6.9ZM113,656.2l9.2-6.3v-1h-5.6l-5.1,7.3h1.5Z"/>
        <path d="M227.7,613c1.7,0,3.2,1.3,2.4,4.7l-8.1,1.8c1.4-3.8,3.8-6.5,5.6-6.5M232.1,626h-1.6c-2,2.4-4.2,4.3-6.3,4.3s-3.3-1.3-3.3-4.3c0-1.2.1-2.4.4-3.6l13-4.3c2.5-6-.5-8.6-4.1-8.6-6.1,0-13.1,10.3-13.1,19.3s1.9,6.2,4.9,6.2,7.2-3.4,10.2-9.1M229.5,607.1l9.1-8.5v-1h-4.9l-5.6,9.5h1.4ZM202.6,613.1h3.4l-6.9,18.7c-.6,1.6.2,3.2,1.9,3.2,3.9,0,10.2-3.8,12.4-9.1h-1.2c-1.7,1.8-5.1,4.3-7.9,4.8l6.3-17.6h6.4l.8-2.7h-6.2l2.4-6.8h-2.5l-4.5,6.8-4.4.8v1.9ZM199.2,615.2c.9-3,.4-5.7-1.9-5.7s-3.5,2.1-6.3,8.2v-3.5c0-2.5-.8-4.7-3-4.7s-5,4.1-6.9,8.1h1.2c1.3-1.8,2.4-2.9,3.4-2.9s1.7,1.7,0,5.6l-5.1,11.3c-.9,2.1,0,3.5,2.1,3.5,1.1.2,2.1-.6,2.3-1.7l5-13.2c1.4-1.7,2.7-3.2,4.3-4.9h4.8ZM170.4,613c1.7,0,3.2,1.3,2.4,4.7l-8.1,1.9c1.4-3.8,3.8-6.5,5.6-6.5M174.9,626h-1.6c-2,2.4-4.2,4.3-6.3,4.3s-3.3-1.3-3.3-4.3c0-1.2.1-2.4.4-3.6l13-4.3c2.5-6-.5-8.6-4.1-8.6-6.1,0-13.1,10.3-13.1,19.3s1.9,6.2,4.9,6.2,7.2-3.4,10.2-9.1M143,631.2c-1.3,0-3.1-1.2-3.1-2.2.3-1.2.8-2.4,1.3-3.6l2.1-5.6c2.3-2.7,5.7-5.5,7.6-5.5s2.1.8,2.1,2.5c0,5.1-4.8,14.5-10,14.5M157.8,614.7c0-3.8-1.4-5.2-4-5.2s-6.4,3.5-9.5,7.7l7.8-20.6-.4-.5-8.2.9v1l1.6,1.2c1.4,1.1,1,2.3-.3,5.7l-8.4,21.8c-.6,1.3-1,2.6-1.4,4,0,2.3,3.1,4.4,5.8,4.4,6.4,0,17-11.5,17-20.3M132.2,612.2c.4-1,0-2.1-.9-2.6-.2,0-.4-.1-.6-.2-3.8,0-8.2,3.4-10,8.1h1.2c1.2-1.7,3.3-3.7,5.2-4l-7.1,18.7c-.5.9,0,2,.8,2.5.2.1.4.2.7.2,3.6,0,7.7-3.4,9.5-8.1h-1.2c-1.2,1.7-3.3,3.7-5.2,4l7.6-18.7ZM133.5,602.8c1.7,0,3.1-1.4,3.1-3.1s-1.4-3.1-3.1-3.1-3.1,1.4-3.1,3.1h0c0,1.7,1.4,3.1,3.1,3.1M114.6,599.8h-17l-.5,1.5c5,1,5.5,1.5,3.1,8l-5.5,15.4c-2.3,6.4-3.3,7-9.1,8l-.4,1.5h26l5.7-10.2h-2c-3.2,3.5-7,7.9-12.7,7.9s-4.9-.8-2.5-7.3l5.5-15.4c2.3-6.4,3.3-7,9.1-8l.4-1.4Z"/>
        <path class="cls-1" d="M181.6,160c.9-.9,1.8-1.9,2.8-2.9h0c1.7-1.9,3.4-3.8,5.4-5.5.6-.5,1.1-1,1.8-1.4.2-.2.2-.5.3-.6-.8.3-1.3,1-2.1,1.3-.2,0-.3-.2-.2-.3l1.7-1.3h-.1c-.2,0-.2-.2-.2-.3-2.1-.3-3.7,1.1-5.1,2.4-.3.2-.6-.2-.8-.2-2.4.8-4.2,2.9-6.6,3.9v-.3c-.9.4-1.9.8-2.9,1.1-1.3.2-2.7.3-4,.2-2,.2-3.9.6-5.8,1h-.2c-1,.3-2.1.7-3,1.2h-.1c0,.2-.2.3-.2.3-.3.4-.7.7-1.1,1-1,.6-1.8,1.3-2.7,2.1,0,0-.2,0-.3,0-.9.8-1.7,1.7-2.6,2.5-.2,0-.3,0-.5,0h0c0,0,0-.1.1-.2l.4-.7c.1-.2.3-.5.5-.7s.4-.7.7-1c0,0,0-.2,0-.2,0,0-.1,0-.2,0,.8-.8,1.7-1.4,2.7-2h0c-.1,0-.3,0-.2-.2s.2-.3.3-.4h0c0-.2,0-.2-.1-.3-.3.2-.5.3-.8.5-.4.4-.7,1.1-1.3,1.1h-.4c0,0,0-.2,0-.2,0,0,0-.1,0-.1h0c0-.1.1-.3.1-.3h0c0-.3.1-.4.2-.5,0,0,0-.1.1-.2l.2-.3c0,0,0-.2,0-.3,0,0,0,0,0,0,.3-.4.7-.7,1.1-1h0c.6-.3,1.2-.7,1.8-1l.3-.2c-.9.3-1.8.7-2.6,1.3,0,0-.2,0-.3.1,0,0-.2,0-.4-.1,0,0,0,0,0-.1.2-.3.6-.5,1-.8.2,0,.3,0,.3.2,5.1-4,12.2-3.1,18.2-5.1l1.4-1c.8-.3,1.4-1.1,2.4-1.6,1.3-.9,2.3-2.2,2.7-3.7,0-.1,0-.2-.2-.3-2,2.2-4.4,4-7.1,5.3-3.4,1.8-7.1,1.4-10.6,1.9.2-.3.5-.3.8-.3,0-.5.3-.6.6-1h.5c.2,0,.2-.3.3-.3.3,0,.8-.2.6-.2-.5-.6-1.4.5-2.2,0,.3-.3.2-.8.5-1h.6c0-.2.2-.5.3-.6,2.4-1.4,4.7-2.6,6.9-3.9-.5,0-.8.5-1.3.2.3,0,0-.5.3-.5,1.8-.5,3.2-1.4,5-2.1-.6,0-1.1.5-1.8,0,.3-.2.5-.5,1-.5v-.5c0-.2.2-.2.3-.2-.1,0-.2,0-.3-.2.2-.3.6-.2,1-.5-.2,0-.5,0-.5-.2.5-.6,1.3-.9,2.1-1-.2-.3-.6,0-.6-.3s.2-.2.3-.2h-.3c-.3-.2-.2-.5-.2-.6,1-1.1,1-2.6,1.4-3.9-.2,0-.3,0-.3-.2-1.6,1.8-4.2,2.4-6.6,3.1h-.8c-.9.3-1.9.3-2.7-.2-.6-.4-1.1-.8-1.6-1.3-1.3-.8-2.6-1.4-4-1.9-4-1.3-8.2-1.9-12.4-1.8,1.8-1,3.7-1.1,5.6-1.6,2.7-.8,5.3-1.8,8.2-1.6-.5,0-1.1,0-1.6,0-2.2-.2-4.5.5-6.9,1-1.6.3-3.1,1-4.7,1.3-1,.3-1.4,1.3-2.6,1.1v-.5c1.6-1.9,3.5-3.8,6.1-4,2.9-.5,5.6,0,8.5.3,2.1.2,4.1.6,6.1,1.1.8,0,1,1.3,1.6,1.4,1,.3,1.9,0,2.9.6,0-.3-.2-.6,0-1,.6-.6,1.4.2,2.1-.2,1.3-.8-1.1-2.2-1.8-3.4,0-.1,0-.2.2-.3,1.3,1.1,2.2,2.4,3.9,3.2.8.3,2.7.8,2.4-.2-.8-1.8-2.4-3.2-3.7-4.8v-.7c-.3,0-.3-.2-.5-.3v-.6c-.6-.3-.5-1-.8-1.4-.5-.8-.2-1.9-.5-2.9-.3-.9-.5-1.8-.6-2.7-.5-2.7-1.1-5.1-1.4-7.7-.3-3.1,1.8-5.5,3.2-8.2,1-2,2.5-3.7,4.3-5.1.6-1.9,1.6-3.7,3-5.2,1.4-1.4,3.1-2.5,5-3.2,1.4-.6,2.8-1.1,4.3-1.6h-110.3v85h78.1c3.1-2.2,6.1-3.2,10.4-5.4,2-1,6.6-3.1,8.2-4.6ZM156.9,148.5c-.3,0-1,.2-.8-.2.2-.8,1.3-.8,1.9-1.1.3-.2.8-.5,1.1-.3.3.5.8.3,1.1.6-1,1-2.2.5-3.4,1h0ZM132.4,145c0,0-.1-.2-.2-.3,2-2.6,3.7-5.3,5.1-8.2,2.1-1.2,3.9-2.7,5.5-4.5,2.5-2.9,5.6-5.3,9-7.1,1.4-.4,2.9-.4,4.2.1-.5.7-1.3.5-1.9,1-.2,0-.4,0-.5-.2.1-.1.2-.3.2-.5-1.6,1.8-3.9,2.6-5.1,4.7-1,1.6-1.6,3.7-3.7,4.2-.6.2.2-.5-.2-.3-5,3-8.5,6.7-12.4,11.1h0ZM145.7,134.4c-.2.3-.3.4-.5.6-.1.3-.4.5-.6.6-.2,0-.3,0-.3-.2.2-.7.6-1.2,1.3-1.4.2,0,.2.1.2.3h0ZM153.2,158.4c0,.2-.2.3-.4.5.2,0,.3.1.2.2-.3.4-.8.7-1.2.9h-.2c-.2.2-.4.4-.6.6s-1.1,0-.8-.2.8-.8,1.2-1.1c.2-.2.5-.4.7-.6,0-.1.2-.2.3-.4.1,0,1-.2.8.2h0ZM150.3,157.1h0c-.6.4-1.2.9-1.8,1.2s-1.4.7-2.1,1h0c0,0-.2-.1-.3,0-.6.3-1.1.8-1.6,1.2l-.2.2h0c0,0-.1.1-.2.2h0l-.4.4c0,0-.1.2-.2.2-.1,0-.4,0-.4-.1h-.3c0,.1-.2.3-.2.3h-.2l-.6.5c-.3.3-.7.6-.9,1h0c0,.1-.1.3-.1.3h0s0,0-.1,0h0v-.2c0,0,0-.2-.1-.3h0s0,0,0,0c.2-.2.3-.4.5-.6h0l.2-.2.3-.3s0,0,.1-.1l.5-.7h0s0,0,0-.1c0-.1.1-.2.2-.3l.2-.3h0s0,0,0,0c0-.1.1-.2.2-.4h0c0-.2,0-.2,0-.3h0c0,0,0-.2,0-.2,0,0,0,0,0-.1.2-.3.4-.6.6-.9h0c-.2.1-.4.4-.6.5s-.5,0-.3-.2c.1-.1.3-.2.4-.3h0c.3-.3.5-.6.8-.8.2-.1.3-.2.5-.4h0c.1-.2.2-.3.4-.5h0c1.5-1.5,4.1-1.4,6.2-2.4.8-.3,1.8.2,2.6,0,.5,0,1,0,1.4.3-1.6.7-2.9,1.6-4.2,2.5h0ZM153.6,145.9c-.2-.2.5,0,.6-.3h-1.3c-.2,0-.2-.2-.2-.3-.8.2-1.8.5-2.6.6-1.1.3-2.1,1.1-3.4,1.4-1.8.6-3.2,2.1-5.1,2.7-.2,0-.2-.2-.2-.3.2-.5.8-.6,1.1-1.1,0-.2,0-.3-.2-.3,1.3-1.8,3.1-2.7,4.7-4.2v-.5c.5-.6,1.3-1,1.6-1.8.3-.7.9-1.2,1.6-1.4-.2-.2-.5-.2-.5-.5-.6,0-1.3.3-1.9-.2.3-.3.6-.5,1-.6-.1,0-.3-.1-.4-.2-.2-.3.3-.7.8-.8.6-.2,1.4-.2,1.9-.6-1.1-.2-2.4.3-3.5-.3.7-2.1,2.1-3.8,4-4.8.2,0,.5,0,.5.2,0,.8-.5,1.5-1.3,1.6,1.3.2,2.6.5,3.9,1-.2.3-.5.2-.6.2.8.5,1.8.2,2.6.8-.5.5-1,0-1.4,0,5,1.4,10.3,2.6,14.5,5.8-3.5,1.6-7.3,2.7-11.1,3.4-.4,0-.9,0-1.3-.2,0,.2,0,.5-.2.5-.6,0-1.1,0-1.6.3-.6.4-1.4.3-2.1,0h0Z"/>
        <path class="cls-2" d="M318.8,85h-91.5c.3.1.6.2.9.4l2.3,1.2c1.2.6,2.3,1.5,3.1,2.6.3.5.8,1.4.5,2.1s-.5,2.1-1.3,2.4c-1.1.4-2.2.5-3.4.3-.7,0-1.3-.1-1.9-.3,2.4,1,4.7,2.1,6.3,4.3.2.3.8.5,1.4.5s.2.3.2.5c-.3.3-.6.5-.5,1h.5c.8-.3.6-1.9,1.8-1.4.8.5,1.1,1.6.6,2.4-.6.6-1.3,1.1-1.9,1.6-.2.4-.2.8,0,1.1.4.6.7,1.2.8,1.9.5,1.1.6,2.4,1.1,3.5.8,2.3,1.1,4.8,1.1,7.2,0,1.3-.6,2.4-.2,3.7.4,1.2,1,2.3,1.8,3.4.6.8,1.2,1.7,1.8,2.6,1,1.6,2.7,3.2,1.9,5.1-.5,1.1-2.2,1-3.4,1.6-1,.8-.2,2.1.3,2.9.8,1.4-1,2.4-2.1,2.9.3.5,1,.3,1.1.6.2.8,1,1.3.5,2.1-.6,1-2.6,1.4-1.6,2.9.6,1.1.2,2.4-.2,3.5-.5,1.2-1.6,2.1-2.9,2.4-1,.3-2,.3-3.1.2-.3-.2-.6-.3-1-.3-2.7-.3-5.5-1.1-8.2-1.1-.8.1-1.5.3-2.2.6-.7.5-1.3,1.1-1.9,1.7h0l-.4.4-.2.2v.2c-.6.6-1,1.2-1.4,1.9h0c0,.1-.1.3-.1.3-.5.9-.9,1.9-1.2,2.9-1.1,3.7-.6,6.8.1,7.6.2.2,5.3,1.8,8.9,3.4,1.3.5,2.6,1.1,3.8,1.8h89.8v-85Z"/>
        <path class="cls-4" d="M232.8,116c.6.2,1.6.2,1.6.5-.3,1.3-2.2,1.6-3.2,2.9h-.5c-.5.3-.3,1.1-.8,1.1-.5-.1-1,0-1.4.2.6.7,1.5,1.1,2.4,1,.3.1.5.4.5.7.1,0,.2,0,.3-.2.2,0,.3,0,.3.2v.6c-.5.6-1.3.3-1.9.5,1.2.3,2.5.3,3.7,0,1-.3,0-1.9.6-2.7-.3,0,0-.5-.3-.5.3-.4.6-.7,1-1,.4,0,.8-.2,1-.5,0-.3-.6-.5-.5-.8,1-.6,1.8-1.6,1.4-2.6-.2-.5-1.4-.5-2.2-.8-.9-.2-1.9-.1-2.7.2-.8.1-1.6.4-2.4.7-1.1.4-2.1.9-3.1,1.6,1.1-.4,2.3-.8,3.5-1,.9-.1,1.8,0,2.7,0Z"/>
        <path d="M85.4,212.5h16.2l15.6,26.8,15.6-26.8h16.1v63.9h-12.9v-45.8l-14.2,23.9h-9.1l-14.3-23.9v45.8h-13v-63.9Z"/>
        <path d="M166.7,212.5h13v63.9h-13v-63.9Z"/>
        <path d="M197.6,212.5h16.6l28.6,46.2v-46.2h13v63.9h-16.6l-28.6-46.2v46.2h-13v-63.9Z"/>
        <path d="M273.6,212.5h13v63.9h-13v-63.9Z"/>
        <path d="M308.1,258.9c3.8,4.9,9,7.9,14.1,7.9s8.2-2.7,8.2-7.3c0-11.8-29-8.6-29-30.2s8.4-18.5,20.6-18.5,16.9,4.3,22.4,10.8l-9.5,8.6c-3.7-4.8-7.9-8-12.8-8s-7.6,2.9-7.6,6.8c0,11.6,29,8.3,29,30.2-.2,12-9.6,19.3-21.3,19.3s-18-3.9-23.6-10.7l9.4-8.7Z"/>
        <path d="M350.2,212.5h52.4v11.8h-19.7v52.1h-13v-52.1h-19.7v-11.8Z"/>
        <path d="M414,212.5h37.2v10.8h-24.3v15.1h20.6v10.8h-20.6v16.4h24.3v10.8h-37.2v-63.9ZM415.1,194.7h13.3l10.3,12.3h-11.9l-11.8-12.3Z"/>
        <path d="M466.3,212.5h19.5c14.1,0,22.7,7.2,22.7,19.1s-3.8,13.5-10.3,16.5l20,28.3h-15.2l-17.1-25.8h-6.7v25.8h-13v-63.9ZM479.3,223.3v16.5h7.3c5.5,0,8.7-3.2,8.7-8.4s-3.2-8.1-8.7-8.1h-7.3Z"/>
        <path d="M526.4,212.5h37.2v10.8h-24.3v15.1h20.6v10.8h-20.6v16.4h24.3v10.8h-37.2v-63.9Z"/>
        <path d="M85.4,304.8h25.1c20.3,0,34,14.7,34,32s-13.7,32-33.9,32h-25.2v-64ZM98.4,316.6v40.3h12.3c11.9,0,20.4-8.9,20.4-20.2s-8.6-20.2-20.4-20.2h-12.3Z"/>
        <path d="M156.9,304.8h37.2v10.8h-24.3v15.2h20.6v10.8h-20.6v16.5h24.3v10.8h-37.2v-63.9Z"/>
        <path d="M233,304.8h13v52.1h24.3v11.8h-37.3v-63.9Z"/>
        <path d="M267.5,331.1l8.2-26.3h13.1l-10.6,26.3h-10.8Z"/>
        <path d="M299,304.8h37.2v10.8h-24.3v15.2h20.6v10.8h-20.6v16.5h24.3v10.8h-37.2v-63.9Z"/>
        <path d="M351.3,304.8h16.6l28.6,46.2v-46.2h13v63.9h-16.7l-28.6-46.2v46.2h-13v-63.9Z"/>
        <path d="M431,351.2c3.8,4.9,9,7.9,14.1,7.9s8.2-2.7,8.2-7.3c0-11.8-29-8.6-29-30.2s8.4-18.5,20.6-18.5,16.9,4.3,22.4,10.8l-9.5,8.6c-3.8-4.8-7.9-8-12.8-8s-7.6,2.9-7.6,6.8c0,11.6,29,8.3,29,30.2-.2,12-9.6,19.3-21.3,19.3s-18-3.9-23.6-10.7l9.4-8.7Z"/>
        <path d="M480.1,304.8h37.2v10.8h-24.3v15.2h20.6v10.8h-20.6v16.5h24.3v10.8h-37.2v-63.9Z"/>
        <path d="M532.4,304.8h13v63.9h-13v-63.9Z"/>
        <path d="M607.5,352.8v-11.1h-16.2v-11.1h29.2v26.8c-5.9,7.9-15.9,13-27.8,13-20.7,0-34.9-15.5-34.9-33.8s13.8-33.8,34-33.8,21.1,5.2,26.9,13l-10.2,7.9c-3.8-5.5-10-8.8-16.7-8.8-12,0-20.6,9.4-20.6,21.6s9,21.6,21.5,21.6c5.5.1,10.8-1.9,14.8-5.6Z"/>
        <path d="M634.9,304.8h16.6l28.5,46.2v-46.2h13v63.9h-16.6l-28.6-46.2v46.2h-13v-63.9Z"/>
        <path d="M710.9,304.8h37.2v10.8h-24.3v15.2h20.6v10.8h-20.6v16.5h24.3v10.8h-37.2v-63.9Z"/>
        <path d="M763.2,304.8h16.2l15.7,26.8,15.6-26.8h16.2v63.9h-13v-45.8l-14.2,23.9h-9.1l-14.2-23.9v45.8h-13v-63.9Z"/>
        <path d="M844.5,304.8h37.2v10.8h-24.3v15.2h20.6v10.8h-20.6v16.5h24.3v10.8h-37.2v-63.9Z"/>
        <path d="M896.8,304.8h16.6l28.6,46.2v-46.2h13v63.9h-16.7l-28.6-46.2v46.2h-13v-63.9Z"/>
        <path d="M966.3,304.8h52.4v11.8h-19.7v52.1h-13v-52.1h-19.7v-11.8Z"/>
        <path d="M89,443.5c3.8,4.9,9,7.9,14.2,7.9s8.2-2.7,8.2-7.3c0-11.8-29-8.6-29-30.2s8.4-18.5,20.6-18.5,16.9,4.3,22.4,10.8l-9.5,8.6c-3.7-4.8-7.9-8-12.8-8s-7.6,2.9-7.6,6.8c0,11.6,29,8.3,29,30.2-.2,12-9.6,19.3-21.3,19.3s-18-3.9-23.6-10.7l9.4-8.7Z"/>
        <path d="M175.1,397.1h13v38.9c0,16.8-9.9,26.8-25.9,26.8s-25.8-10-25.8-26.8v-38.9h13v40c0,8.6,4.8,13.6,13,13.6s12.9-5,12.9-13.6v-40Z"/>
        <path d="M204.1,397.1h21.1c14.1,0,22.6,7.2,22.6,19.1s-8.6,19-22.6,19h-8.1v25.8h-13v-63.9ZM217.1,407.9v16.5h8.7c5.5,0,8.8-3.2,8.8-8.4s-3.3-8.1-8.8-8.1h-8.7Z"/>
        <path d="M258.5,397.1h37.2v10.8h-24.3v15.1h20.6v10.8h-20.6v16.4h24.3v10.8h-37.2v-63.9ZM271.1,391.6l10.3-12.3h13.3l-11.9,12.3h-11.8Z"/>
        <path d="M310.8,397.1h19.5c14,0,22.7,7.2,22.7,19.1s-3.8,13.5-10.3,16.5l20,28.3h-15.2l-17.1-25.8h-6.7v25.8h-13v-63.9ZM323.8,407.9v16.5h7.3c5.5,0,8.7-3.2,8.7-8.4s-3.2-8.1-8.7-8.1h-7.3Z"/>
        <path d="M371,397.1h13v63.9h-13v-63.9Z"/>
        <path d="M401.8,397.1h37.2v10.8h-24.3v15.1h20.6v10.8h-20.6v16.4h24.3v10.8h-37.2v-63.9Z"/>
        <path d="M491.5,397.1h13v38.9c0,16.8-9.9,26.8-25.9,26.8s-25.8-10-25.8-26.8v-38.9h13v40c0,8.6,4.8,13.6,13,13.6s12.9-5,12.9-13.6v-40Z"/>
        <path d="M520.5,397.1h19.5c14.1,0,22.7,7.2,22.7,19.1s-3.7,13.5-10.3,16.5l20,28.3h-15.2l-17.1-25.8h-6.7v25.8h-13v-63.9ZM533.5,407.9v16.5h7.3c5.5,0,8.7-3.2,8.7-8.4s-3.2-8.1-8.7-8.1h-7.3Z"/>
        <path d="M85.4,489.4h37.2v10.8h-24.3v15.2h20.7v10.8h-20.7v16.4h24.3v10.8h-37.2v-63.9Z"/>
        <path d="M132.5,489.4h52.4v11.8h-19.7v52.1h-13v-52.1h-19.7v-11.8Z"/>
        <path d="M220,489.4h25.1c20.3,0,33.9,14.7,33.9,32s-13.7,32-33.9,32h-25.1v-64ZM233,501.2v40.3h12.3c11.9,0,20.4-8.8,20.4-20.2s-8.6-20.2-20.4-20.2h-12.3Z"/>
        <path d="M291.6,489.4h37.2v10.8h-24.3v15.2h20.6v10.8h-20.6v16.4h24.3v10.8h-37.2v-63.9Z"/>
        <path d="M367.6,489.4h13v52.1h24.3v11.8h-37.3v-63.9Z"/>
        <path d="M435.1,489.4h17l24.2,63.9h-13.8l-6.1-16.6h-25.6l-6.1,16.6h-13.7l24.1-63.9ZM452.4,525.6l-8.8-24-8.8,24h17.5Z"/>
        <path d="M509.9,489.4h19.5c14,0,22.7,7.2,22.7,19.1s-3.7,13.5-10.3,16.5l20,28.3h-15.2l-17.1-25.8h-6.7v25.8h-13v-63.9ZM522.9,500.2v16.5h7.3c5.5,0,8.7-3.2,8.7-8.4s-3.2-8.1-8.7-8.1h-7.3Z"/>
        <path d="M570,489.4h37.2v10.8h-24.3v15.2h20.6v10.8h-20.6v16.4h24.3v10.8h-37.2v-63.9Z"/>
        <path d="M666.1,534.2l10.2,7.8c-5.8,7.9-15.3,13-26.9,13-20.2,0-34-15.5-34-33.8s13.8-33.8,34-33.8,21.1,5.2,26.9,13l-10.2,7.9c-3.8-5.5-10-8.8-16.7-8.8-12,0-20.6,9.4-20.6,21.6s8.6,21.7,20.6,21.7c6.7,0,13-3.2,16.7-8.8Z"/>
        <path d="M687.5,489.4h13v25.5h32.2v-25.5h13v63.9h-13v-26.7h-32.2v26.7h-13v-63.9Z"/>
        <path d="M763.6,489.4h37.2v10.8h-24.3v15.2h20.6v10.8h-20.6v16.4h24.3v10.8h-37.2v-63.9Z"/>
        <path d="M815.9,489.4h19.5c14.1,0,22.7,7.2,22.7,19.1s-3.7,13.5-10.3,16.5l20,28.3h-15.2l-17.1-25.8h-6.7v25.8h-13v-63.9ZM828.9,500.2v16.5h7.3c5.5,0,8.7-3.2,8.7-8.4s-3.2-8.1-8.7-8.1h-7.3Z"/>
        <path d="M920.5,534.2l10.2,7.8c-5.8,7.9-15.3,13-26.9,13-20.2,0-34-15.5-34-33.8s13.8-33.8,34-33.8,21.1,5.2,26.9,13l-10.2,7.9c-3.8-5.5-10-8.8-16.7-8.8-12,0-20.6,9.4-20.6,21.6s8.6,21.7,20.6,21.7c6.7,0,13-3.2,16.7-8.8Z"/>
        <path d="M942,489.4h13v25.5h32.2v-25.5h13v63.9h-13v-26.7h-32.2v26.7h-13v-63.9Z"/>
        <path d="M1018,489.4h37.2v10.8h-24.2v15.2h20.6v10.8h-20.6v16.4h24.3v10.8h-37.3v-63.9Z"/>
      </g>
    </g>
  </g>
</svg>