<?xml version="1.0" encoding="UTF-8"?>
<svg width="22px" height="19px" viewBox="0 0 22 19" version="1.1" xmlns="http://www.w3.org/2000/svg" xmlns:xlink="http://www.w3.org/1999/xlink">
    <g id="Bank" stroke="none" stroke-width="1" fill="none" fill-rule="evenodd">
        <g id="Bank-Colors-&amp;-Iko" transform="translate(-1077.000000, -1111.000000)" fill="#055FD2">
            <g id="•-icones" transform="translate(50.000000, 691.000000)">
                <g id="iko/view-none" transform="translate(1027.000000, 420.000000)">
                    <path d="M11,3.6325 C13.76,3.6325 16,5.8725 16,8.6325 C16,9.1425 15.9,9.6325 15.76,10.0925 L18.82,13.1525 C20.21,11.9225 21.31,10.3825 22,8.6225 C20.27,4.2425 16,1.1325 11,1.1325 C9.73,1.1325 8.51,1.3325 7.36,1.7025 L9.53,3.8725 C10,3.7325 10.49,3.6325 11,3.6325 Z M1.71,0.2925 C1.32,0.6825 1.32,1.3125 1.71,1.7025 L3.68,3.6725 C2.06,4.9625 0.77,6.6625 0,8.6325 C1.73,13.0225 6,16.1325 11,16.1325 C12.52,16.1325 13.97,15.8325 15.31,15.3125 L18.03,18.0325 C18.42,18.4225 19.05,18.4225 19.44,18.0325 C19.83,17.6425 19.83,17.0125 19.44,16.6225 L3.13,0.2925 C2.74,-0.0975 2.1,-0.0975 1.71,0.2925 Z M11,13.6325 C8.24,13.6325 6,11.3925 6,8.6325 C6,7.8625 6.18,7.1325 6.49,6.4925 L8.06,8.0625 C8.03,8.2425 8,8.4325 8,8.6325 C8,10.2925 9.34,11.6325 11,11.6325 C11.2,11.6325 11.38,11.6025 11.57,11.5625 L13.14,13.1325 C12.49,13.4525 11.77,13.6325 11,13.6325 Z M13.97,8.3025 C13.82,6.9025 12.72,5.8125 11.33,5.6625 L13.97,8.3025 Z" id="Fill-1"></path>
                </g>
            </g>
        </g>
    </g>
</svg>