<?xml version="1.0" encoding="UTF-8"?>
<svg width="24px" height="24px" viewBox="0 0 24 24" version="1.1" xmlns="http://www.w3.org/2000/svg" xmlns:xlink="http://www.w3.org/1999/xlink">
    <g id="Symbols" stroke="none" stroke-width="1" fill="none" fill-rule="evenodd">
        <g id="iko/vue-liste" fill="currentColor">
            <path d="M4.17135205,13.0281123 C4.81559567,13.0281123 5.3427041,12.5010039 5.3427041,11.8567602 C5.3427041,11.2125166 4.81559567,10.6854082 4.17135205,10.6854082 C3.52710842,10.6854082 3,11.2125166 3,11.8567602 C3,12.5010039 3.52710842,13.0281123 4.17135205,13.0281123 Z M4.17135205,17.7135205 C4.81559567,17.7135205 5.3427041,17.1864121 5.3427041,16.5421684 C5.3427041,15.8979248 4.81559567,15.3708164 4.17135205,15.3708164 C3.52710842,15.3708164 3,15.8979248 3,16.5421684 C3,17.1864121 3.52710842,17.7135205 4.17135205,17.7135205 Z M4.17135205,8.3427041 C4.81559567,8.3427041 5.3427041,7.81559567 5.3427041,7.17135205 C5.3427041,6.52710842 4.81559567,6 4.17135205,6 C3.52710842,6 3,6.52710842 3,7.17135205 C3,7.81559567 3.52710842,8.3427041 4.17135205,8.3427041 Z M8.68540819,13.0281123 L20.6854082,13.0281123 C21.2354082,13.0281123 21.6854082,12.5010039 21.6854082,11.8567602 C21.6854082,11.2125166 21.2354082,10.6854082 20.6854082,10.6854082 L8.68540819,10.6854082 C8.13540819,10.6854082 7.68540819,11.2125166 7.68540819,11.8567602 C7.68540819,12.5010039 8.13540819,13.0281123 8.68540819,13.0281123 Z M8.68540819,17.7135205 L20.6854082,17.7135205 C21.2354082,17.7135205 21.6854082,17.1864121 21.6854082,16.5421684 C21.6854082,15.8979248 21.2354082,15.3708164 20.6854082,15.3708164 L8.68540819,15.3708164 C8.13540819,15.3708164 7.68540819,15.8979248 7.68540819,16.5421684 C7.68540819,17.1864121 8.13540819,17.7135205 8.68540819,17.7135205 Z M7.68540819,7.17135205 C7.68540819,7.81559567 8.13540819,8.3427041 8.68540819,8.3427041 L20.6854082,8.3427041 C21.2354082,8.3427041 21.6854082,7.81559567 21.6854082,7.17135205 C21.6854082,6.52710842 21.2354082,6 20.6854082,6 L8.68540819,6 C8.13540819,6 7.68540819,6.52710842 7.68540819,7.17135205 Z" id="Fill-1"></path>
        </g>
    </g>
</svg>