<?xml version="1.0" encoding="UTF-8"?>
<svg width="24px" height="24px" viewBox="0 0 24 24" version="1.1" xmlns="http://www.w3.org/2000/svg" xmlns:xlink="http://www.w3.org/1999/xlink">
    <g id="Symbols" stroke="none" stroke-width="1" fill="none" fill-rule="evenodd">
        <g id="iko-boot/université" fill="currentColor" fill-rule="nonzero">
            <path d="M18.763,4.07488289 C18.9102583,4.16595785 19,4.32673655 19,4.49988289 L19,19.4998829 C19,19.7760253 18.7761424,19.9998829 18.5,19.9998829 L15.5,19.9998829 C15.2238576,19.9998829 15,19.7760253 15,19.4998829 L15,17.9998829 L14,17.9998829 L14,19.4998829 C14,19.7760253 13.7761424,19.9998829 13.5,19.9998829 L4.5,19.9998829 C4.22385763,19.9998829 4,19.7760253 4,19.4998829 L4,13.9998829 C4.00016334,13.7847632 4.13790318,13.5938607 4.342,13.5258829 L10,11.6398829 L10,8.49988289 C10,8.31066129 10.1068295,8.13765416 10.276,8.05288289 L18.276,4.05288289 C18.4311549,3.97522224 18.6154794,3.98354901 18.763,4.07488289 Z M10,12.6938829 L5,14.3598829 L5,18.9998829 L10,18.9998829 L10,12.6938829 Z M18,5.30888289 L11,8.80888289 L11,18.9998829 L13,18.9998829 L13,17.4998829 C13,17.2237405 13.2238576,16.9998829 13.5,16.9998829 L15.5,16.9998829 C15.7761424,16.9998829 16,17.2237405 16,17.4998829 L16,18.9998829 L18,18.9998829 L18,5.30888289 Z M7,16.9998829 L7,17.9998829 L6,17.9998829 L6,16.9998829 L7,16.9998829 Z M9,16.9998829 L9,17.9998829 L8,17.9998829 L8,16.9998829 L9,16.9998829 Z M7,14.9998829 L7,15.9998829 L6,15.9998829 L6,14.9998829 L7,14.9998829 Z M9,14.9998829 L9,15.9998829 L8,15.9998829 L8,14.9998829 L9,14.9998829 Z M13,14.9998829 L13,15.9998829 L12,15.9998829 L12,14.9998829 L13,14.9998829 Z M15,14.9998829 L15,15.9998829 L14,15.9998829 L14,14.9998829 L15,14.9998829 Z M17,14.9998829 L17,15.9998829 L16,15.9998829 L16,14.9998829 L17,14.9998829 Z M13,12.9998829 L13,13.9998829 L12,13.9998829 L12,12.9998829 L13,12.9998829 Z M15,12.9998829 L15,13.9998829 L14,13.9998829 L14,12.9998829 L15,12.9998829 Z M17,12.9998829 L17,13.9998829 L16,13.9998829 L16,12.9998829 L17,12.9998829 Z M13,10.9998829 L13,11.9998829 L12,11.9998829 L12,10.9998829 L13,10.9998829 Z M15,10.9998829 L15,11.9998829 L14,11.9998829 L14,10.9998829 L15,10.9998829 Z M17,10.9998829 L17,11.9998829 L16,11.9998829 L16,10.9998829 L17,10.9998829 Z M13,8.99988289 L13,9.99988289 L12,9.99988289 L12,8.99988289 L13,8.99988289 Z M15,8.99988289 L15,9.99988289 L14,9.99988289 L14,8.99988289 L15,8.99988289 Z M17,8.99988289 L17,9.99988289 L16,9.99988289 L16,8.99988289 L17,8.99988289 Z M17,6.99988289 L17,7.99988289 L16,7.99988289 L16,6.99988289 L17,6.99988289 Z" id="Combined-Shape"></path>
        </g>
    </g>
</svg>