<?xml version="1.0" encoding="UTF-8"?>
<svg width="24px" height="24px" viewBox="0 0 24 24" version="1.1" xmlns="http://www.w3.org/2000/svg" xmlns:xlink="http://www.w3.org/1999/xlink">
    <g id="Symbols" stroke="none" stroke-width="1" fill="none" fill-rule="evenodd">
        <g id="iko/home" fill="currentColor">
            <path d="M10.0413208,19.3145517 L10.0413208,14.4232864 L13.954333,14.4232864 L13.954333,19.3145517 C13.954333,19.8525909 14.3945469,20.2928048 14.9325861,20.2928048 L17.8673453,20.2928048 C18.4053845,20.2928048 18.8455983,19.8525909 18.8455983,19.3145517 L18.8455983,12.4667803 L20.5086286,12.4667803 C20.958625,12.4667803 21.1738406,11.909176 20.8314521,11.6157001 L12.6532564,4.24945453 C12.2815203,3.91684849 11.7141335,3.91684849 11.3423973,4.24945453 L3.16420171,11.6157001 C2.83159567,11.909176 3.03702881,12.4667803 3.48702522,12.4667803 L5.15005543,12.4667803 L5.15005543,19.3145517 C5.15005543,19.8525909 5.59026931,20.2928048 6.1283085,20.2928048 L9.06306769,20.2928048 C9.60110688,20.2928048 10.0413208,19.8525909 10.0413208,19.3145517 Z" id="Fill-1"></path>
        </g>
    </g>
</svg>