<?xml version="1.0" encoding="UTF-8"?>
<svg width="24px" height="24px" viewBox="0 0 24 24" version="1.1" xmlns="http://www.w3.org/2000/svg" xmlns:xlink="http://www.w3.org/1999/xlink">
    <g id="Symbols" stroke="none" stroke-width="1" fill="none" fill-rule="evenodd">
        <g id="iko/check-list">
            <rect id="Rectangle" x="0" y="0" width="24" height="24"></rect>
            <path d="M20,9.2537961 C20,8.81608396 19.6418719,8.45795585 19.2041598,8.45795585 L13.633278,8.45795585 C13.1955659,8.45795585 12.8374378,8.81608396 12.8374378,9.2537961 C12.8374378,9.69150823 13.1955659,10.0496363 13.633278,10.0496363 L19.2041598,10.0496363 C19.6418719,10.0496363 20,9.69150823 20,9.2537961 Z M12.8374378,15.6205181 C12.8374378,16.0582302 13.1955659,16.4163583 13.633278,16.4163583 L19.2041598,16.4163583 C19.6418719,16.4163583 20,16.0582302 20,15.6205181 C20,15.1828059 19.6418719,14.8246778 19.2041598,14.8246778 L13.633278,14.8246778 C13.1955659,14.8246778 12.8374378,15.1828059 12.8374378,15.6205181 Z M10.823962,6.57181447 C11.1343397,6.88219217 11.1343397,7.38357152 10.823962,7.69394922 L7.45755774,11.0762703 C7.14718004,11.386648 6.64580069,11.386648 6.32746459,11.0762703 L4.64028327,9.38113053 C4.32990558,9.07075284 4.32990558,8.56937348 4.64028327,8.25899579 C4.95066097,7.94861809 5.45204032,7.94861809 5.76241802,8.25899579 L6.89251116,9.38908894 L9.70978563,6.57181447 C10.0122049,6.26939518 10.5215427,6.26939518 10.823962,6.57181447 Z M10.8319204,12.9464948 C11.1422981,13.2568725 11.1422981,13.7582519 10.8319204,14.0686296 L7.46551614,17.4509506 C7.15513845,17.7613283 6.65375909,17.7613283 6.33542299,17.4509506 L4.64028327,15.7478525 C4.32990558,15.4374748 4.32990558,14.9360954 4.64028327,14.6257177 C4.95066097,14.3153401 5.45204032,14.3153401 5.76241802,14.6257177 L6.89251116,15.7558109 L9.70978563,12.9385364 C10.0122049,12.6361171 10.5215427,12.6361171 10.8319204,12.9464948 L10.8319204,12.9464948 Z" id="Shape" fill="currentColor" fill-rule="nonzero"></path>
        </g>
    </g>
</svg>