<?xml version="1.0" encoding="UTF-8"?>
<svg width="20px" height="18px" viewBox="0 0 20 18" version="1.1" xmlns="http://www.w3.org/2000/svg" xmlns:xlink="http://www.w3.org/1999/xlink">
    <title>78E11903-F9B7-476E-9EA9-E8C6DCE13ADE@2x</title>
    <g id="Home-404-&amp;-Co" stroke="none" stroke-width="1" fill="none" fill-rule="evenodd">
        <g id="Home-Marsha---add-member-(add)-A" transform="translate(-457.000000, -373.000000)">
            <g id="•-pop" transform="translate(395.000000, 90.000000)">
                <g id="Group-5" transform="translate(40.000000, 266.000000)">
                    <g id="iko/search-people" transform="translate(20.000000, 13.000000)">
                        <g id="Group">
                            <rect id="Rectangle" x="0" y="0" width="24" height="24"></rect>
                            <rect id="Rectangle" x="0" y="0" width="24" height="24"></rect>
                        </g>
                        <g id="Group" transform="translate(2.000000, 4.000000)" fill="currentColor" fill-rule="nonzero">
                            <circle id="Oval" cx="8" cy="4" r="4"></circle>
                            <path d="M8.35,10.01 C5.62,9.91 0,11.27 0,14 L0,15 C0,15.55 0.45,16 1,16 L9.54,16 C7.07,13.24 8.31,10.11 8.35,10.01 Z" id="Path"></path>
                            <path d="M17.43,14.02 C17.9,13.22 18.13,12.25 17.91,11.2 C17.57,9.56 16.19,8.25 14.53,8.04 C11.9,7.7 9.68,9.91 10.03,12.54 C10.25,14.2 11.55,15.58 13.19,15.92 C14.24,16.14 15.21,15.91 16.01,15.44 L17.87,17.3 C18.26,17.69 18.89,17.69 19.28,17.3 L19.28,17.3 C19.67,16.91 19.67,16.28 19.28,15.89 L17.43,14.02 Z M14,14 C12.9,14 12,13.1 12,12 C12,10.9 12.9,10 14,10 C15.1,10 16,10.9 16,12 C16,13.1 15.1,14 14,14 Z" id="Shape"></path>
                        </g>
                    </g>
                </g>
            </g>
        </g>
    </g>
</svg>