<?xml version="1.0" encoding="UTF-8"?>
<svg width="24px" height="24px" viewBox="0 0 24 24" version="1.1" xmlns="http://www.w3.org/2000/svg" xmlns:xlink="http://www.w3.org/1999/xlink">
    <g id="Symbols" stroke="none" stroke-width="1" fill="none" fill-rule="evenodd">
        <g id="iko/burger" fill="currentColor">
            <path d="M4,18 L20,18 C20.55,18 21,17.55 21,17 C21,16.45 20.55,16 20,16 L4,16 C3.45,16 3,16.45 3,17 C3,17.55 3.45,18 4,18 Z M4,13 L20,13 C20.55,13 21,12.55 21,12 C21,11.45 20.55,11 20,11 L4,11 C3.45,11 3,11.45 3,12 C3,12.55 3.45,13 4,13 Z M3,7 C3,7.55 3.45,8 4,8 L20,8 C20.55,8 21,7.55 21,7 C21,6.45 20.55,6 20,6 L4,6 C3.45,6 3,6.45 3,7 Z" id="Fill-1"></path>
        </g>
    </g>
</svg>