<?xml version="1.0" encoding="UTF-8"?>
<svg width="24px" height="24px" viewBox="0 0 24 24" version="1.1" xmlns="http://www.w3.org/2000/svg" xmlns:xlink="http://www.w3.org/1999/xlink">
    <g id="Symbols" stroke="none" stroke-width="1" fill="none" fill-rule="evenodd">
        <g id="iko-boot/code-barre" fill="currentColor" fill-rule="nonzero">
            <g id="upc" transform="translate(7.000000, 8.000000)">
                <path d="M0,0.5 C0,0.223857625 0.223857625,0 0.5,0 C0.776142375,0 1,0.223857625 1,0.5 L1,7.5 C1,7.77614237 0.776142375,8 0.5,8 C0.223857625,8 0,7.77614237 0,7.5 L0,0.5 Z M2,0.5 C2,0.223857625 2.22385763,0 2.5,0 C2.77614237,0 3,0.223857625 3,0.5 L3,7.5 C3,7.77614237 2.77614237,8 2.5,8 C2.22385763,8 2,7.77614237 2,7.5 L2,0.5 Z M4,0.5 C4,0.223857625 4.22385763,0 4.5,0 C4.77614237,0 5,0.223857625 5,0.5 L5,7.5 C5,7.77614237 4.77614237,8 4.5,8 C4.22385763,8 4,7.77614237 4,7.5 L4,0.5 Z M6,0.5 C6,0.223857625 6.22385763,0 6.5,0 L7.5,0 C7.77614237,0 8,0.223857625 8,0.5 L8,7.5 C8,7.77614237 7.77614237,8 7.5,8 L6.5,8 C6.22385763,8 6,7.77614237 6,7.5 L6,0.5 Z M9,0.5 C9,0.223857625 9.22385763,0 9.5,0 C9.77614237,0 10,0.223857625 10,0.5 L10,7.5 C10,7.77614237 9.77614237,8 9.5,8 C9.22385763,8 9,7.77614237 9,7.5 L9,0.5 Z" id="Shape"></path>
            </g>
        </g>
    </g>
</svg>