<?xml version="1.0" encoding="UTF-8"?>
<svg width="46px" height="46px" viewBox="0 0 46 46" version="1.1" xmlns="http://www.w3.org/2000/svg" xmlns:xlink="http://www.w3.org/1999/xlink">
    <g id="Home-404-&amp;-Co" stroke="none" stroke-width="1" fill="none" fill-rule="evenodd">
        <g id="Mon-Profil-A" transform="translate(-147.000000, -546.000000)" fill="currentColor">
            <g id="•-videos" transform="translate(53.000000, 494.000000)">
                <g id="iko/next" transform="translate(94.500000, 52.500000)">
                    <path d="M22.5,0 C10.08,0 0,10.08 0,22.5 C0,34.92 10.08,45 22.5,45 C34.92,45 45,34.92 45,22.5 C45,10.08 34.92,0 22.5,0 Z M16.875,28.5075 L16.875,16.4925 C16.875,14.715 18.855,13.635 20.34,14.6025 L29.6775,20.61 C31.05,21.4875 31.05,23.5125 29.6775,24.39 L20.34,30.3975 C18.855,31.365 16.875,30.285 16.875,28.5075 Z" id="Fill-1"></path>
                </g>
            </g>
        </g>
    </g>
</svg>