<?xml version="1.0" encoding="UTF-8"?>
<svg width="23px" height="24px" viewBox="0 0 23 24" version="1.1" xmlns="http://www.w3.org/2000/svg" xmlns:xlink="http://www.w3.org/1999/xlink">
    <g id="Home-404-&amp;-Co" stroke="none" stroke-width="1" fill="none" fill-rule="evenodd">
        <g id="Home-Marsha---B-(menu-fermé)" transform="translate(-915.000000, -212.000000)" fill="#035CCD">
            <g id="dropdown/active" transform="translate(892.000000, 90.000000)">
                <g id="iko/avatar-copy-4" transform="translate(23.750000, 122.750000)">
                    <path d="M10,0 C10.6875,0 11.25,0.5625 11.25,1.25 L11.243515,1.37733459 C11.1791992,2.00561523 10.6445313,2.5 10,2.5 L2.5,2.5 L2.5,20 L10,20 C10.6875,20 11.25,20.5625 11.25,21.25 L11.243515,21.3773346 C11.1791992,22.0056152 10.6445313,22.5 10,22.5 L2.5,22.5 C1.125,22.5 3.55271368e-15,21.375 3.55271368e-15,20 L3.55271368e-15,2.5 C3.55271368e-15,1.125 1.125,0 2.5,0 Z M17.5,7.7625 C17.5,7.2 18.175,6.925 18.575,7.325 L22.0625,10.8125 C22.3,11.05 22.3,11.45 22.05,11.6875 L18.5625,15.175 C18.175,15.575 17.5,15.3 17.5,14.7375 L17.5,12.5 L8.75,12.5 C8.0625,12.5 7.5,11.9375 7.5,11.25 L7.50648499,11.1226654 C7.57080078,10.4943848 8.10546875,10 8.75,10 L17.5,10 Z" id="Combined-Shape"></path>
                </g>
            </g>
        </g>
    </g>
</svg>