<?xml version="1.0" encoding="utf-8"?>
<!-- Generator: Adobe Illustrator 26.3.1, SVG Export Plug-In . SVG Version: 6.00 Build 0)  -->
<svg version="1.1" id="Calque_1" xmlns="http://www.w3.org/2000/svg" xmlns:xlink="http://www.w3.org/1999/xlink" x="0px" y="0px"
	 viewBox="0 0 235 175" fill="currentColor">
<g id="Final_00000176002979782902295110000011299374272856369552_">
	<g id="Final---Marsha_00000084520888609409410190000017894898359019123893_" transform="translate(-955.000000, 0.000000)">
		<g id="White_00000093173751436436466290000004909740436433025167_" transform="translate(920.000000, -10.000000)">
			<path id="Marsha_00000020381327529922558000000005494349339455914431_" class="st10" d="M47.1,138.4c0.4,0,0.9-0.4,0.9-0.9v-26.4
				h0.2c0,0,0.9,2.2,2.6,4.6l12.8,17.9l12.7-17.9c1-1.3,1.6-2.5,2.1-3.4l0.1-0.3c0.3-0.6,0.4-0.9,0.4-0.9h0.2v26.4
				c0,0.4,0.4,0.9,0.9,0.9h8.1c0.4,0,0.9-0.4,0.9-0.9V96.1c0-0.4-0.4-0.9-0.9-0.9h-6.3c-0.5,0-1,0.2-1.4,0.7l-16.8,23.5h-0.1
				L46.8,96c-0.4-0.5-0.9-0.7-1.4-0.7H39c-0.4,0-0.9,0.4-0.9,0.9v41.5c0,0.4,0.4,0.9,0.9,0.9H47.1z M108.2,139.2
				c4.5,0,8.3-1.4,11.2-3.7h0.2l0.9,2c0.3,0.6,0.7,0.9,1.2,0.9h5.3c0.4,0,1.2-0.8,1.2-1.2v-15.5c0-7.6-4.6-13.5-15.8-13.5
				c-10.2,0-14.3,4.3-14.3,9.6v0.3c0,0.4,0.8,1.2,1.2,1.2h6.8c0.6,0,1.2-0.2,1.2-0.6v-0.1c0.1-1.9,1.5-3,5-3c4.7,0,6.6,2.1,6.6,5.1
				v0.8l-0.1,0.1c0,0-3.5-0.3-7.1-0.5l-0.6,0c-0.1,0-0.2,0-0.3,0l-0.6,0c-0.3,0-0.6,0-0.8,0c-9,0-12.5,4.2-12.5,9
				C97.2,135,100.8,139.2,108.2,139.2z M109.8,132.1c-2.4,0-3.5-1.1-3.5-2.3c0-1.3,0.9-2.4,4-2.4h8.7v2.2
				C117.1,130.9,113.3,132.1,109.8,132.1z M142.9,138.4c0.4,0,1.2-0.8,1.2-1.2v-16.1c0.9-2.7,3.6-5.2,6.1-5.2c1.9,0,3.2,1.2,3.2,3.6
				v1.7c0,0.4,0.8,1.2,1.2,1.2h6.8c0.4,0,1.2-0.8,1.2-1.2v-3c0-6.5-3.5-10.1-9.1-10.1c-3.5,0-6.7,1.2-9.4,4.8H144
				c-0.6-1.5-1.1-4.1-2.2-4.1h-5.6c-0.4,0-1.2,0.8-1.2,1.2v27.1c0,0.4,0.8,1.2,1.2,1.2H142.9z M181.8,139.2
				c10.7,0,14.6-5.3,14.6-10.1c0-4.5-2.4-7.8-10.9-8.6l-7.1-0.6c-2.2-0.2-2.8-0.9-2.8-1.8c0-1.2,1.4-2.7,5.3-2.7
				c2.7,0,4.4,0.6,5,1.8c0.4,0.8,0.9,1.1,1.7,1.1h6.2c0.7,0,1.2-0.6,1.2-1.2c0-4.8-4.7-8.8-14.1-8.8c-9.9,0-14.5,5.1-14.5,10.2
				c0,4.7,3,7.6,9.9,8.2l7.1,0.6c3,0.3,3.7,1,3.7,2.1c0,1.4-1.5,2.7-5.4,2.7c-4.5,0-5.8-0.9-6.3-2.5c-0.2-0.7-0.6-1-1.4-1h-6.3
				c-0.9,0-1.4,0.6-1.4,1.4C166.3,134.5,170.7,139.2,181.8,139.2z M210.7,138.4c0.4,0,1.2-0.8,1.2-1.2V121c1.4-2.9,4.4-5,7.8-5
				c2.9,0,4.9,1.8,4.9,4.8v16.5c0,0.4,0.8,1.2,1.2,1.2h6.8c0.4,0,1.2-0.8,1.2-1.2V120c0-7.1-3.9-11.8-12-11.8
				c-3.6,0-7.6,1.5-9.7,3.7h-0.3V92.1c0-0.4-0.8-1.2-1.2-1.2h-6.8c-0.4,0-1.2,0.8-1.2,1.2v45.1c0,0.4,0.8,1.2,1.2,1.2H210.7z
				 M251.2,139.2c4.5,0,8.3-1.4,11.2-3.7h0.2l0.9,2c0.3,0.6,0.7,0.9,1.2,0.9h5.3c0.4,0,1.2-0.8,1.2-1.2v-15.5
				c0-7.6-4.6-13.5-15.8-13.5c-10.2,0-14.3,4.3-14.3,9.6v0.3c0,0.4,0.8,1.2,1.2,1.2h6.8c0.6,0,1.2-0.2,1.2-0.6v-0.1
				c0.1-1.9,1.5-3,5-3c4.7,0,6.6,2.1,6.6,5.1v0.8l-0.1,0.1c0,0-3.5-0.3-7.1-0.5l-0.6,0c-0.1,0-0.2,0-0.3,0l-0.6,0
				c-0.3,0-0.6,0-0.8,0c-9,0-12.5,4.2-12.5,9C240.1,135,243.7,139.2,251.2,139.2z M252.7,132.1c-2.4,0-3.5-1.1-3.5-2.3
				c0-1.3,0.9-2.4,4-2.4h8.7v2.2C260,130.9,256.2,132.1,252.7,132.1z"/>
			<path id="Shape-Copy-5_00000050639400031737608420000015305735091404385467_" class="st11" d="M106.4,20.4l0.2,0.1l139,62.9
				c3.5,1.6,4,6.3,1,8.5l-0.2,0.1L235,99.9c-2.3,1.6-5.4,1-7-1.2c-1.5-2.2-1.1-5.2,1-6.8l0.2-0.1l4.2-2.9L109.5,32.8l0,59.5
				c0,2.7-2.1,4.9-4.8,5l-0.2,0c-2.7,0-4.9-2.1-5-4.8l0-0.2V25c0-3.5,3.5-5.9,6.7-4.7L106.4,20.4z"/>
			<path id="Path_00000117653607801630293110000006306785073046981816_" class="st11" d="M160.2,146c1.2,2.4,0.4,5.3-1.9,6.6
				l-0.2,0.1l-51.2,26.6c-3.3,1.7-7.2-0.6-7.3-4.2l0-0.2v-20.2c0-2.8,2.2-5,5-5c2.7,0,4.9,2.1,5,4.8l0,0.2l0,12l43.9-22.8
				C155.9,142.6,158.9,143.6,160.2,146z"/>
		</g>
	</g>
</g>
</svg>
