<?xml version="1.0" encoding="UTF-8"?>
<svg width="24px" height="24px" viewBox="0 0 24 24" version="1.1" xmlns="http://www.w3.org/2000/svg" xmlns:xlink="http://www.w3.org/1999/xlink">
    <g id="Home-404-&amp;-Co" stroke="none" stroke-width="1" fill="none" fill-rule="evenodd">
        <g id="Home-Marsha---B-(menu-fermé)" transform="translate(-915.000000, -168.000000)" fill="#035CCD" fill-rule="nonzero">
            <g id="dropdown/active" transform="translate(892.000000, 90.000000)">
                <g id="iko/avatar-copy-5" transform="translate(23.750000, 78.750000)">
                    <path d="M0,18.75 C0,19.4375 0.5625,20 1.25,20 L7.5,20 L7.5,17.5 L1.25,17.5 C0.5625,17.5 0,18.0625 0,18.75 Z M0,3.75 C0,4.4375 0.5625,5 1.25,5 L12.5,5 L12.5,2.5 L1.25,2.5 C0.5625,2.5 0,3.0625 0,3.75 Z M12.5,21.25 L12.5,20 L21.25,20 C21.9375,20 22.5,19.4375 22.5,18.75 C22.5,18.0625 21.9375,17.5 21.25,17.5 L12.5,17.5 L12.5,16.25 C12.5,15.5625 11.9375,15 11.25,15 C10.5625,15 10,15.5625 10,16.25 L10,21.25 C10,21.9375 10.5625,22.5 11.25,22.5 C11.9375,22.5 12.5,21.9375 12.5,21.25 Z M5,8.75 L5,10 L1.25,10 C0.5625,10 0,10.5625 0,11.25 C0,11.9375 0.5625,12.5 1.25,12.5 L5,12.5 L5,13.75 C5,14.4375 5.5625,15 6.25,15 C6.9375,15 7.5,14.4375 7.5,13.75 L7.5,8.75 C7.5,8.0625 6.9375,7.5 6.25,7.5 C5.5625,7.5 5,8.0625 5,8.75 Z M22.5,11.25 C22.5,10.5625 21.9375,10 21.25,10 L10,10 L10,12.5 L21.25,12.5 C21.9375,12.5 22.5,11.9375 22.5,11.25 Z M16.25,7.5 C16.9375,7.5 17.5,6.9375 17.5,6.25 L17.5,5 L21.25,5 C21.9375,5 22.5,4.4375 22.5,3.75 C22.5,3.0625 21.9375,2.5 21.25,2.5 L17.5,2.5 L17.5,1.25 C17.5,0.5625 16.9375,0 16.25,0 C15.5625,0 15,0.5625 15,1.25 L15,6.25 C15,6.9375 15.5625,7.5 16.25,7.5 Z" id="Shape"></path>
                </g>
            </g>
        </g>
    </g>
</svg>