<?xml version="1.0" encoding="UTF-8"?>
<svg width="22px" height="15px" viewBox="0 0 22 15" version="1.1" xmlns="http://www.w3.org/2000/svg" xmlns:xlink="http://www.w3.org/1999/xlink">
    <g id="Bank" stroke="none" stroke-width="1" fill="none" fill-rule="evenodd">
        <g id="Bank-Colors-&amp;-Iko" transform="translate(-861.000000, -1112.000000)" fill="#055FD2">
            <g id="•-icones" transform="translate(50.000000, 691.000000)">
                <g id="iko/view" transform="translate(811.000000, 421.000000)">
                    <path d="M11,0 C6,0 1.73,3.11 0,7.5 C1.73,11.89 6,15 11,15 C16,15 20.27,11.89 22,7.5 C20.27,3.11 16,0 11,0 Z M11,12.5 C8.24,12.5 6,10.26 6,7.5 C6,4.74 8.24,2.5 11,2.5 C13.76,2.5 16,4.74 16,7.5 C16,10.26 13.76,12.5 11,12.5 Z M11,4.5 C9.34,4.5 8,5.84 8,7.5 C8,9.16 9.34,10.5 11,10.5 C12.66,10.5 14,9.16 14,7.5 C14,5.84 12.66,4.5 11,4.5 Z" id="Fill-1"></path>
                </g>
            </g>
        </g>
    </g>
</svg>