<svg
  style="display: none;"
  xmlns="http://www.w3.org/2000/svg"
  xmlns:xlink="http://www.w3.org/1999/xlink"
>
  <defs>
    <symbol id="icon-organization" viewBox="64 64 896 896">
      <path d="M894 462c30.9 0 43.8-39.7 18.7-58L530.8 126.2a31.81 31.81 0 00-37.6 0L111.3 404c-25.1 18.2-12.2 58 18.8 58H192v374h-72c-4.4 0-8 3.6-8 8v52c0 4.4 3.6 8 8 8h784c4.4 0 8-3.6 8-8v-52c0-4.4-3.6-8-8-8h-72V462h62zM512 196.7l271.1 197.2H240.9L512 196.7zM264 462h117v374H264V462zm189 0h117v374H453V462zm307 374H642V462h118v374z" />
    </symbol>

    <symbol id="icon-person-outline" viewBox="64 64 896 896">
      <path d="M858.5 763.6a374 374 0 00-80.6-119.5 375.63 375.63 0 00-119.5-80.6c-.4-.2-.8-.3-1.2-.5C719.5 518 760 444.7 760 362c0-137-111-248-248-248S264 225 264 362c0 82.7 40.5 156 102.8 201.1-.4.2-.8.3-1.2.5-44.8 18.9-85 46-119.5 80.6a375.63 375.63 0 00-80.6 119.5A371.7 371.7 0 00136 901.8a8 8 0 008 8.2h60c4.4 0 7.9-3.5 8-7.8 2-77.2 33-149.5 87.8-204.3 56.7-56.7 132-87.9 212.2-87.9s155.5 31.2 212.2 87.9C779 752.7 810 825 812 902.2c.1 4.4 3.6 7.8 8 7.8h60a8 8 0 008-8.2c-1-47.8-10.9-94.3-29.5-138.2zM512 534c-45.9 0-89.1-17.9-121.6-50.4S340 407.9 340 362c0-45.9 17.9-89.1 50.4-121.6S466.1 190 512 190s89.1 17.9 121.6 50.4S684 316.1 684 362c0 45.9-17.9 89.1-50.4 121.6S557.9 534 512 534z" />
    </symbol>

    <symbol id="icon-play-circled" viewBox="64 64 896 896">
      <path d="M512 64C264.6 64 64 264.6 64 512s200.6 448 448 448 448-200.6 448-448S759.4 64 512 64zm0 820c-205.4 0-372-166.6-372-372s166.6-372 372-372 372 166.6 372 372-166.6 372-372 372z"></path><path d="M719.4 499.1l-296.1-215A15.9 15.9 0 00398 297v430c0 13.1 14.8 20.5 25.3 12.9l296.1-215a15.9 15.9 0 000-25.8zm-257.6 134V390.9L628.5 512 461.8 633.1z" />
    </symbol>

    <symbol id="icon-upload" viewBox="64 64 896 896">
      <path d="M400 317.7h73.9V656c0 4.4 3.6 8 8 8h60c4.4 0 8-3.6 8-8V317.7H624c6.7 0 10.4-7.7 6.3-12.9L518.3 163a8 8 0 00-12.6 0l-112 141.7c-4.1 5.3-.4 13 6.3 13zM878 626h-60c-4.4 0-8 3.6-8 8v154H214V634c0-4.4-3.6-8-8-8h-60c-4.4 0-8 3.6-8 8v198c0 17.7 14.3 32 32 32h684c17.7 0 32-14.3 32-32V634c0-4.4-3.6-8-8-8z" />
    </symbol>
  </defs>
</svg>
